<svg width="276" height="276" viewBox="0 0 276 276" fill="none" xmlns="http://www.w3.org/2000/svg">
<path d="M44.816 112.576V113.376H44.352C43.968 113.376 43.776 113.568 43.776 113.952V114.464H44C44.3093 114.464 44.5653 114.56 44.768 114.752C44.9813 114.944 45.088 115.184 45.088 115.472C45.088 115.781 44.9813 116.032 44.768 116.224C44.5653 116.416 44.3093 116.512 44 116.512C43.6907 116.512 43.4347 116.411 43.232 116.208C43.0293 116.005 42.928 115.749 42.928 115.44V113.952C42.928 113.035 43.3867 112.576 44.304 112.576H44.816ZM51.0236 124.224C50.213 124.224 49.4876 124.08 48.8476 123.792C48.2076 123.504 47.701 123.072 47.3276 122.496C46.965 121.909 46.7836 121.179 46.7836 120.304V119.968H48.1116V120.304C48.1116 121.232 48.3836 121.925 48.9276 122.384C49.4716 122.832 50.1703 123.056 51.0236 123.056C51.8983 123.056 52.565 122.859 53.0236 122.464C53.4823 122.069 53.7116 121.573 53.7116 120.976C53.7116 120.56 53.605 120.229 53.3916 119.984C53.189 119.739 52.901 119.541 52.5276 119.392C52.1543 119.232 51.717 119.093 51.2156 118.976L50.3836 118.768C49.733 118.597 49.157 118.389 48.6556 118.144C48.1543 117.899 47.7596 117.579 47.4716 117.184C47.1943 116.779 47.0556 116.261 47.0556 115.632C47.0556 115.003 47.2103 114.459 47.5196 114C47.8396 113.541 48.2823 113.189 48.8476 112.944C49.4236 112.699 50.085 112.576 50.8316 112.576C51.589 112.576 52.2663 112.709 52.8636 112.976C53.4716 113.232 53.9463 113.616 54.2876 114.128C54.6396 114.629 54.8156 115.264 54.8156 116.032V116.704H53.4876V116.032C53.4876 115.488 53.3703 115.051 53.1356 114.72C52.9116 114.389 52.597 114.144 52.1916 113.984C51.797 113.824 51.3436 113.744 50.8316 113.744C50.0956 113.744 49.5036 113.909 49.0556 114.24C48.6076 114.56 48.3836 115.019 48.3836 115.616C48.3836 116.011 48.4796 116.331 48.6716 116.576C48.8636 116.821 49.1356 117.024 49.4876 117.184C49.8396 117.333 50.261 117.467 50.7516 117.584L51.5836 117.792C52.2343 117.931 52.8156 118.123 53.3276 118.368C53.8503 118.603 54.2663 118.928 54.5756 119.344C54.885 119.749 55.0396 120.283 55.0396 120.944C55.0396 121.605 54.8743 122.181 54.5436 122.672C54.213 123.163 53.7436 123.547 53.1356 123.824C52.5383 124.091 51.8343 124.224 51.0236 124.224ZM58.2441 124L56.6761 116.176H57.9561L59.2521 123.152H59.4761L61.1881 116.176H63.2841L64.9961 123.152H65.2201L66.5161 116.176H67.7961L66.2281 124H64.0681L62.3401 117.024H62.1321L60.4041 124H58.2441ZM69.9686 124V116.176H71.2326V124H69.9686ZM70.6086 114.96C70.3313 114.96 70.0966 114.869 69.9046 114.688C69.7233 114.507 69.6326 114.277 69.6326 114C69.6326 113.712 69.7233 113.477 69.9046 113.296C70.0966 113.115 70.3313 113.024 70.6086 113.024C70.886 113.024 71.1153 113.115 71.2966 113.296C71.478 113.477 71.5686 113.712 71.5686 114C71.5686 114.277 71.478 114.507 71.2966 114.688C71.1153 114.869 70.886 114.96 70.6086 114.96ZM76.7705 124C76.3225 124 75.9758 123.877 75.7305 123.632C75.4958 123.387 75.3785 123.051 75.3785 122.624V117.28H73.0265V116.176H75.3785V113.392H76.6425V116.176H79.2025V117.28H76.6425V122.432C76.6425 122.752 76.7972 122.912 77.1065 122.912H78.8505V124H76.7705ZM84.5686 124.224C83.8113 124.224 83.1286 124.064 82.5206 123.744C81.9233 123.413 81.4486 122.944 81.0966 122.336C80.7553 121.728 80.5846 121.008 80.5846 120.176V120C80.5846 119.157 80.7553 118.437 81.0966 117.84C81.4486 117.232 81.9233 116.768 82.5206 116.448C83.1286 116.117 83.8113 115.952 84.5686 115.952C85.3153 115.952 85.95 116.091 86.4726 116.368C87.006 116.645 87.422 117.013 87.7206 117.472C88.03 117.931 88.2273 118.421 88.3126 118.944L87.0806 119.2C87.0273 118.816 86.8993 118.464 86.6966 118.144C86.5046 117.824 86.2326 117.568 85.8806 117.376C85.5286 117.184 85.0966 117.088 84.5846 117.088C84.062 117.088 83.5926 117.205 83.1766 117.44C82.7713 117.675 82.446 118.011 82.2006 118.448C81.966 118.885 81.8486 119.408 81.8486 120.016V120.16C81.8486 120.768 81.966 121.291 82.2006 121.728C82.446 122.165 82.7713 122.501 83.1766 122.736C83.5926 122.971 84.062 123.088 84.5846 123.088C85.3633 123.088 85.9553 122.885 86.3606 122.48C86.7766 122.075 87.0326 121.573 87.1286 120.976L88.3766 121.248C88.2593 121.76 88.046 122.245 87.7366 122.704C87.4273 123.163 87.006 123.531 86.4726 123.808C85.95 124.085 85.3153 124.224 84.5686 124.224ZM90.5311 124V112.8H91.7951V117.424H92.0191C92.1258 117.189 92.2858 116.971 92.4991 116.768C92.7231 116.555 93.0058 116.379 93.3471 116.24C93.6991 116.101 94.1418 116.032 94.6751 116.032C95.2618 116.032 95.7845 116.16 96.2431 116.416C96.7125 116.661 97.0858 117.024 97.3631 117.504C97.6405 117.973 97.7791 118.56 97.7791 119.264V124H96.5151V119.36C96.5151 118.581 96.3178 118.016 95.9231 117.664C95.5391 117.312 95.0165 117.136 94.3551 117.136C93.5978 117.136 92.9791 117.381 92.4991 117.872C92.0298 118.363 91.7951 119.093 91.7951 120.064V124H90.5311ZM100.344 124V116.176H101.608V124H100.344ZM100.984 114.96C100.706 114.96 100.472 114.869 100.28 114.688C100.098 114.507 100.008 114.277 100.008 114C100.008 113.712 100.098 113.477 100.28 113.296C100.472 113.115 100.706 113.024 100.984 113.024C101.261 113.024 101.49 113.115 101.672 113.296C101.853 113.477 101.944 113.712 101.944 114C101.944 114.277 101.853 114.507 101.672 114.688C101.49 114.869 101.261 114.96 100.984 114.96ZM104.266 124V116.176H105.498V117.504H105.722C105.892 117.131 106.18 116.795 106.586 116.496C107.002 116.187 107.61 116.032 108.41 116.032C108.996 116.032 109.519 116.155 109.978 116.4C110.447 116.645 110.82 117.008 111.098 117.488C111.375 117.968 111.514 118.56 111.514 119.264V124H110.25V119.36C110.25 118.581 110.052 118.016 109.658 117.664C109.274 117.312 108.751 117.136 108.09 117.136C107.332 117.136 106.714 117.381 106.234 117.872C105.764 118.363 105.53 119.093 105.53 120.064V124H104.266ZM113.694 120.128V119.904C113.694 119.083 113.859 118.379 114.19 117.792C114.521 117.205 114.969 116.752 115.534 116.432C116.099 116.112 116.718 115.952 117.39 115.952C118.211 115.952 118.841 116.112 119.278 116.432C119.726 116.741 120.057 117.088 120.27 117.472H120.494V116.176H121.694V125.824C121.694 126.251 121.577 126.587 121.342 126.832C121.107 127.077 120.766 127.2 120.318 127.2H115.006V126.08H119.982C120.302 126.08 120.462 125.92 120.462 125.6V122.624H120.238C120.11 122.859 119.929 123.088 119.694 123.312C119.459 123.536 119.155 123.723 118.782 123.872C118.409 124.011 117.945 124.08 117.39 124.08C116.718 124.08 116.099 123.92 115.534 123.6C114.969 123.28 114.521 122.827 114.19 122.24C113.859 121.643 113.694 120.939 113.694 120.128ZM117.726 122.96C118.537 122.96 119.193 122.704 119.694 122.192C120.206 121.68 120.462 120.976 120.462 120.08V119.952C120.462 119.045 120.206 118.341 119.694 117.84C119.193 117.328 118.537 117.072 117.726 117.072C116.926 117.072 116.265 117.328 115.742 117.84C115.23 118.341 114.974 119.045 114.974 119.952V120.08C114.974 120.976 115.23 121.68 115.742 122.192C116.265 122.704 116.926 122.96 117.726 122.96ZM124.216 116.512V115.712H124.68C125.064 115.712 125.256 115.52 125.256 115.136V114.624H125.032C124.722 114.624 124.461 114.528 124.248 114.336C124.045 114.144 123.944 113.904 123.944 113.616C123.944 113.307 124.045 113.056 124.248 112.864C124.461 112.672 124.722 112.576 125.032 112.576C125.341 112.576 125.597 112.677 125.8 112.88C126.002 113.083 126.104 113.339 126.104 113.648V115.136C126.104 116.053 125.645 116.512 124.728 116.512H124.216Z" fill="#173DE6"/>
<rect x="138" y="16" width="122" height="122" fill="#D9D9D9"/>
<line x1="259.25" y1="153.029" x2="259.25" y2="1.52588e-05" stroke="white" stroke-width="1.5"/>
<line x1="137.25" y1="153.029" x2="137.25" y2="1.52588e-05" stroke="white" stroke-width="1.5"/>
<line x1="122" y1="137.25" x2="275.029" y2="137.25" stroke="white" stroke-width="1.5"/>
<line x1="122" y1="15.25" x2="275.029" y2="15.25" stroke="white" stroke-width="1.5"/>
<circle cx="137" cy="15" r="3" fill="#173DE6"/>
<circle cx="259" cy="15" r="3" fill="#173DE6"/>
<circle cx="259" cy="138" r="3" fill="#173DE6"/>
<circle cx="137" cy="137" r="3" fill="#FF6969"/>
<rect x="16" y="138" width="122" height="122" fill="#D9D9D9"/>
<line x1="137.25" y1="275.029" x2="137.25" y2="122" stroke="white" stroke-width="1.5"/>
<line x1="15.25" y1="275.029" x2="15.25" y2="122" stroke="white" stroke-width="1.5"/>
<line y1="259.25" x2="153.029" y2="259.25" stroke="white" stroke-width="1.5"/>
<line y1="137.25" x2="153.029" y2="137.25" stroke="white" stroke-width="1.5"/>
<circle cx="15" cy="137" r="3" fill="#173DE6"/>
<circle cx="137" cy="137" r="3" fill="#173DE6"/>
<circle cx="137" cy="260" r="3" fill="#173DE6"/>
<circle cx="15" cy="259" r="3" fill="#173DE6"/>
</svg>
