<svg width="276" height="276" viewBox="0 0 276 276" fill="none" xmlns="http://www.w3.org/2000/svg">
<path d="M44.32 111.704C44.128 112.184 43.9893 112.627 43.904 113.032C43.8293 113.427 43.7813 113.8 43.76 114.152C43.7493 114.493 43.744 114.835 43.744 115.176H42.352C42.352 114.621 42.3893 114.131 42.464 113.704C42.5387 113.267 42.6347 112.888 42.752 112.568C42.8693 112.237 42.992 111.949 43.12 111.704H44.32ZM49.556 123.208C48.8627 123.208 48.2493 123.133 47.716 122.984C47.1827 122.835 46.7347 122.616 46.372 122.328C46.02 122.029 45.7587 121.667 45.588 121.24C45.4173 120.813 45.348 120.317 45.38 119.752L46.692 119.448C46.6493 120.013 46.74 120.483 46.964 120.856C47.1987 121.229 47.5453 121.512 48.004 121.704C48.4627 121.885 49.0013 121.976 49.62 121.976C50.2067 121.976 50.708 121.901 51.124 121.752C51.54 121.603 51.8493 121.395 52.052 121.128C52.2653 120.861 52.372 120.557 52.372 120.216C52.372 119.832 52.244 119.528 51.988 119.304C51.7427 119.08 51.4173 118.904 51.012 118.776C50.6067 118.648 50.1533 118.531 49.652 118.424C49.1613 118.317 48.6707 118.2 48.18 118.072C47.7 117.933 47.2627 117.752 46.868 117.528C46.4733 117.304 46.1533 117.016 45.908 116.664C45.6733 116.301 45.556 115.848 45.556 115.304C45.556 114.675 45.716 114.131 46.036 113.672C46.356 113.213 46.7987 112.861 47.364 112.616C47.94 112.36 48.6173 112.232 49.396 112.232C50.164 112.232 50.8467 112.355 51.444 112.6C52.052 112.845 52.532 113.208 52.884 113.688C53.236 114.157 53.4173 114.739 53.428 115.432L52.052 115.768C52.0627 115.384 51.9987 115.048 51.86 114.76C51.732 114.472 51.5507 114.232 51.316 114.04C51.0813 113.848 50.7987 113.704 50.468 113.608C50.148 113.501 49.7853 113.448 49.38 113.448C48.9 113.448 48.4787 113.523 48.116 113.672C47.764 113.821 47.4813 114.024 47.268 114.28C47.0653 114.536 46.964 114.84 46.964 115.192C46.964 115.608 47.108 115.939 47.396 116.184C47.6947 116.419 48.0787 116.605 48.548 116.744C49.0173 116.883 49.5187 117.011 50.052 117.128C50.5107 117.224 50.9587 117.341 51.396 117.48C51.844 117.608 52.2493 117.784 52.612 118.008C52.9747 118.221 53.2627 118.504 53.476 118.856C53.6893 119.208 53.796 119.656 53.796 120.2C53.796 120.808 53.636 121.336 53.316 121.784C53.0067 122.232 52.5373 122.584 51.908 122.84C51.2787 123.085 50.4947 123.208 49.556 123.208ZM57.217 123L55.025 114.728H56.529L58.161 121.768H58.401L60.161 114.728H62.033L63.793 121.768H64.033L65.665 114.728H67.153L64.929 123H62.897L61.169 115.976H60.993L59.281 123H57.217ZM68.8109 123V114.728H70.2669V123H68.8109ZM69.5309 113.288C69.2002 113.288 68.9495 113.219 68.7789 113.08C68.6082 112.941 68.5229 112.733 68.5229 112.456C68.5229 112.189 68.6082 111.987 68.7789 111.848C68.9495 111.709 69.2002 111.64 69.5309 111.64C69.8722 111.64 70.1282 111.709 70.2989 111.848C70.4695 111.987 70.5549 112.189 70.5549 112.456C70.5549 112.733 70.4695 112.941 70.2989 113.08C70.1282 113.219 69.8722 113.288 69.5309 113.288ZM75.3396 123.16C74.5716 123.16 74.001 122.952 73.6276 122.536C73.265 122.12 73.0836 121.485 73.0836 120.632V115.944H71.8356L71.8516 114.728H72.6196C72.8863 114.728 73.0783 114.68 73.1956 114.584C73.3236 114.488 73.4036 114.328 73.4356 114.104L73.5956 112.872H74.4916V114.728H76.8596V115.96H74.4916V120.6C74.4916 121.027 74.5876 121.336 74.7796 121.528C74.9823 121.709 75.2703 121.8 75.6436 121.8C75.8356 121.8 76.0383 121.773 76.2516 121.72C76.4756 121.667 76.6943 121.565 76.9076 121.416V122.856C76.609 122.973 76.3263 123.053 76.0596 123.096C75.793 123.139 75.553 123.16 75.3396 123.16ZM82.1281 123.208C81.4135 123.208 80.8001 123.096 80.2881 122.872C79.7868 122.637 79.3761 122.323 79.0561 121.928C78.7468 121.523 78.5175 121.064 78.3681 120.552C78.2188 120.04 78.1441 119.507 78.1441 118.952C78.1441 118.333 78.2241 117.757 78.3841 117.224C78.5441 116.691 78.7841 116.221 79.1041 115.816C79.4348 115.411 79.8455 115.096 80.3361 114.872C80.8268 114.637 81.3975 114.52 82.0481 114.52C82.6775 114.52 83.2321 114.632 83.7121 114.856C84.1921 115.069 84.5815 115.379 84.8801 115.784C85.1788 116.179 85.3761 116.643 85.4721 117.176L84.0801 117.576C84.0588 117.267 83.9681 116.973 83.8081 116.696C83.6481 116.419 83.4188 116.195 83.1201 116.024C82.8321 115.843 82.4641 115.752 82.0161 115.752C81.6108 115.752 81.2588 115.832 80.9601 115.992C80.6615 116.152 80.4108 116.376 80.2081 116.664C80.0161 116.941 79.8668 117.272 79.7601 117.656C79.6641 118.04 79.6161 118.461 79.6161 118.92C79.6161 119.539 79.7068 120.077 79.8881 120.536C80.0695 120.995 80.3468 121.352 80.7201 121.608C81.0935 121.864 81.5681 121.992 82.1441 121.992C82.5921 121.992 82.9708 121.917 83.2801 121.768C83.5895 121.608 83.8348 121.389 84.0161 121.112C84.1975 120.824 84.3148 120.483 84.3681 120.088L85.6961 120.392C85.6215 120.851 85.4828 121.256 85.2801 121.608C85.0881 121.96 84.8375 122.253 84.5281 122.488C84.2188 122.723 83.8615 122.899 83.4561 123.016C83.0615 123.144 82.6188 123.208 82.1281 123.208ZM87.3418 123V118.024V111.8H88.8458V114.376C88.8458 114.611 88.8351 114.851 88.8138 115.096C88.8031 115.331 88.7818 115.576 88.7498 115.832C88.7284 116.077 88.7018 116.328 88.6698 116.584C88.6378 116.84 88.6004 117.096 88.5578 117.352H88.8298C88.9791 116.723 89.1764 116.2 89.4218 115.784C89.6671 115.357 89.9764 115.043 90.3498 114.84C90.7231 114.627 91.1658 114.52 91.6778 114.52C92.6164 114.52 93.3151 114.851 93.7738 115.512C94.2431 116.163 94.4778 117.139 94.4778 118.44V123H93.0058V118.584C93.0058 117.624 92.8564 116.925 92.5578 116.488C92.2698 116.04 91.8324 115.816 91.2458 115.816C90.7551 115.816 90.3391 115.965 89.9978 116.264C89.6564 116.552 89.3844 116.947 89.1818 117.448C88.9898 117.939 88.8618 118.504 88.7978 119.144V123H87.3418ZM96.8578 123V114.728H98.3138V123H96.8578ZM97.5778 113.288C97.2471 113.288 96.9964 113.219 96.8258 113.08C96.6551 112.941 96.5698 112.733 96.5698 112.456C96.5698 112.189 96.6551 111.987 96.8258 111.848C96.9964 111.709 97.2471 111.64 97.5778 111.64C97.9191 111.64 98.1751 111.709 98.3458 111.848C98.5164 111.987 98.6018 112.189 98.6018 112.456C98.6018 112.733 98.5164 112.941 98.3458 113.08C98.1751 113.219 97.9191 113.288 97.5778 113.288ZM100.811 123V117.896V114.728H102.123L101.995 117.384H102.251C102.389 116.723 102.587 116.184 102.843 115.768C103.099 115.352 103.419 115.043 103.803 114.84C104.187 114.627 104.635 114.52 105.147 114.52C106.064 114.52 106.757 114.851 107.227 115.512C107.707 116.163 107.947 117.139 107.947 118.44V123H106.475V118.568C106.475 117.629 106.325 116.936 106.027 116.488C105.739 116.04 105.312 115.816 104.747 115.816C104.235 115.816 103.797 115.976 103.435 116.296C103.083 116.616 102.805 117.043 102.603 117.576C102.411 118.099 102.299 118.669 102.267 119.288V123H100.811ZM113.415 125.8C112.529 125.8 111.809 125.731 111.255 125.592C110.7 125.464 110.289 125.261 110.023 124.984C109.756 124.707 109.623 124.365 109.623 123.96C109.623 123.48 109.809 123.08 110.183 122.76C110.567 122.44 111.153 122.227 111.943 122.12V121.832C111.367 121.832 110.935 121.763 110.647 121.624C110.369 121.485 110.231 121.277 110.231 121C110.231 120.712 110.375 120.472 110.663 120.28C110.951 120.077 111.415 119.891 112.055 119.72V119.432C111.415 119.411 110.919 119.213 110.567 118.84C110.225 118.456 110.055 117.96 110.055 117.352C110.055 116.808 110.199 116.339 110.487 115.944C110.785 115.539 111.212 115.229 111.767 115.016C112.332 114.792 113.004 114.68 113.783 114.68H117.687V115.912L115.127 115.512V115.816C115.756 115.944 116.231 116.163 116.551 116.472C116.881 116.781 117.047 117.187 117.047 117.688C117.047 118.147 116.913 118.547 116.647 118.888C116.38 119.229 115.985 119.496 115.463 119.688C114.951 119.869 114.316 119.96 113.559 119.96C113.409 119.96 113.255 119.955 113.095 119.944C112.935 119.933 112.716 119.907 112.439 119.864C112.151 120.035 111.921 120.195 111.751 120.344C111.58 120.493 111.495 120.627 111.495 120.744C111.495 120.861 111.575 120.957 111.735 121.032C111.895 121.096 112.087 121.139 112.311 121.16C112.545 121.181 112.764 121.192 112.967 121.192H114.855C115.068 121.192 115.335 121.213 115.655 121.256C115.985 121.299 116.311 121.389 116.631 121.528C116.961 121.656 117.239 121.869 117.463 122.168C117.687 122.456 117.799 122.851 117.799 123.352C117.799 123.928 117.628 124.397 117.286 124.76C116.945 125.123 116.449 125.384 115.799 125.544C115.148 125.715 114.353 125.8 113.415 125.8ZM113.431 124.584C114.145 124.584 114.727 124.541 115.175 124.456C115.623 124.371 115.948 124.227 116.151 124.024C116.353 123.832 116.455 123.587 116.455 123.288C116.455 123.021 116.385 122.813 116.247 122.664C116.108 122.504 115.932 122.392 115.719 122.328C115.505 122.264 115.292 122.227 115.079 122.216C114.865 122.195 114.679 122.184 114.519 122.184H112.647C112.028 122.323 111.601 122.515 111.367 122.76C111.143 122.995 111.031 123.251 111.031 123.528C111.031 123.827 111.137 124.051 111.351 124.2C111.564 124.349 111.852 124.451 112.215 124.504C112.588 124.557 112.993 124.584 113.431 124.584ZM113.623 119.016C114.295 119.016 114.801 118.877 115.143 118.6C115.484 118.323 115.655 117.949 115.655 117.48C115.655 116.979 115.479 116.568 115.127 116.248C114.785 115.917 114.268 115.752 113.575 115.752C112.913 115.752 112.401 115.907 112.039 116.216C111.687 116.525 111.511 116.925 111.511 117.416C111.511 117.736 111.591 118.019 111.751 118.264C111.911 118.499 112.145 118.685 112.455 118.824C112.775 118.952 113.164 119.016 113.623 119.016ZM118.803 115.272C118.995 114.781 119.128 114.339 119.203 113.944C119.288 113.549 119.336 113.181 119.347 112.84C119.368 112.488 119.379 112.141 119.379 111.8H120.771C120.771 112.355 120.734 112.845 120.659 113.272C120.584 113.699 120.488 114.077 120.371 114.408C120.254 114.739 120.131 115.027 120.003 115.272H118.803Z" fill="white"/>
<rect x="138" y="16" width="122" height="122" fill="#D9D9D9"/>
<line x1="259.25" y1="153.029" x2="259.25" y2="-0.000106812" stroke="white" stroke-width="1.5"/>
<line x1="137.25" y1="153.029" x2="137.25" y2="-0.000106812" stroke="white" stroke-width="1.5"/>
<line x1="122" y1="137.25" x2="275.029" y2="137.25" stroke="white" stroke-width="1.5"/>
<line x1="122" y1="15.25" x2="275.029" y2="15.25" stroke="white" stroke-width="1.5"/>
<circle cx="137" cy="15" r="3" fill="#FF6969"/>
<circle cx="259" cy="15" r="3" fill="#FF6969"/>
<circle cx="259" cy="138" r="3" fill="#FF6969"/>
<circle cx="137" cy="137" r="3" fill="#FF6969"/>
<rect x="16" y="138" width="122" height="122" fill="#D9D9D9"/>
<line x1="137.25" y1="275.029" x2="137.25" y2="122" stroke="white" stroke-width="1.5"/>
<line x1="15.25" y1="275.029" x2="15.25" y2="122" stroke="white" stroke-width="1.5"/>
<line y1="259.25" x2="153.029" y2="259.25" stroke="white" stroke-width="1.5"/>
<line y1="137.25" x2="153.029" y2="137.25" stroke="white" stroke-width="1.5"/>
<circle cx="15" cy="137" r="3" fill="#FF6969"/>
<circle cx="137" cy="137" r="3" fill="#FF6969"/>
<circle cx="137" cy="260" r="3" fill="#FF6969"/>
<circle cx="15" cy="259" r="3" fill="#FF6969"/>
</svg>
